# xmcd
#
# Track frame offsets:
#	150
#	15780
#	30403
#	47038
#	64349
#	81632
#	98741
#	117384
#	133200
#	150301
#	167102
#	187136
#
# Disc length: 2762 seconds
#
# Revision: 0
# Processed by: cddbd v1.5.2PL0 Copyright (c) Steve Scherf et al.
# Submitted via: audiograbber 1.82.01
#
DISCID=9b0ac80c
DTITLE=JoJo - The High Road
DYEAR=2006
DGENRE=Pop
TTITLE0=This Time
TTITLE1=The Way You Do Me
TTITLE2=Too Little Too Late
TTITLE3=The High Road
TTITLE4=Anything
TTITLE5=Like That
TTITLE6=Good Ol
TTITLE7=Coming For You
TTITLE8=Let It Rain
TTITLE9=Exceptional
TTITLE10=How To Touch A Girl
TTITLE11=Note To God
EXTD=
EXTT0=
EXTT1=
EXTT2=
EXTT3=
EXTT4=
EXTT5=
EXTT6=
EXTT7=
EXTT8=
EXTT9=
EXTT10=
EXTT11=
PLAYORDER=
